<?xml version="1.0" encoding="utf-8" ?>
<svg baseProfile="tiny" height="100%" version="1.2" width="100%" xmlns="http://www.w3.org/2000/svg" xmlns:ev="http://www.w3.org/2001/xml-events" xmlns:xlink="http://www.w3.org/1999/xlink"><defs /><path d="M 510,859 L 510,897 L 519,897 L 519,892 L 518,891 L 518,885 L 519,884 L 533,884 L 534,883 L 535,883 L 536,882 L 537,882 L 540,879 L 540,878 L 541,877 L 541,876 L 542,875 L 542,870 L 541,869 L 541,867 L 534,860 L 533,860 L 532,859 Z" fill="none" stroke="black" stroke-width="1" /><path d="M 599,858 L 598,859 L 595,859 L 594,860 L 593,860 L 591,862 L 590,862 L 584,868 L 584,869 L 583,870 L 583,871 L 582,872 L 582,882 L 583,883 L 583,885 L 584,886 L 584,887 L 591,894 L 592,894 L 593,895 L 594,895 L 595,896 L 596,896 L 597,897 L 611,897 L 612,896 L 614,896 L 615,895 L 616,895 L 618,893 L 619,893 L 621,891 L 621,890 L 622,889 L 622,876 L 607,876 L 606,877 L 606,879 L 605,880 L 605,882 L 606,883 L 607,883 L 608,882 L 613,882 L 614,883 L 614,887 L 613,888 L 612,888 L 611,889 L 599,889 L 598,888 L 596,888 L 591,883 L 591,881 L 590,880 L 590,875 L 591,874 L 591,873 L 592,872 L 592,871 L 593,870 L 594,870 L 596,868 L 597,868 L 598,867 L 607,867 L 608,868 L 609,868 L 610,869 L 611,869 L 612,870 L 614,870 L 616,868 L 617,868 L 619,866 L 620,866 L 620,865 L 619,864 L 618,864 L 616,862 L 615,862 L 613,860 L 612,860 L 611,859 L 608,859 L 607,858 Z" fill="none" stroke="black" stroke-width="1" /><path d="M 466,858 L 465,859 L 463,859 L 462,860 L 461,860 L 460,861 L 459,861 L 455,865 L 455,866 L 453,868 L 453,870 L 452,871 L 452,875 L 451,876 L 451,878 L 452,879 L 452,883 L 453,884 L 453,885 L 454,886 L 454,887 L 455,888 L 455,889 L 461,895 L 462,895 L 463,896 L 465,896 L 466,897 L 475,897 L 476,896 L 478,896 L 479,895 L 481,895 L 483,893 L 484,893 L 488,889 L 488,888 L 490,886 L 490,885 L 491,884 L 491,881 L 492,880 L 492,877 L 491,876 L 491,872 L 490,871 L 490,870 L 487,867 L 487,866 L 484,863 L 483,863 L 480,860 L 479,860 L 478,859 L 476,859 L 475,858 Z" fill="none" stroke="black" stroke-width="1" /><path d="M 403,858 L 403,859 L 402,860 L 402,863 L 403,864 L 403,867 L 412,867 L 413,866 L 415,868 L 415,897 L 416,896 L 423,896 L 423,867 L 424,866 L 425,866 L 426,867 L 434,867 L 434,864 L 433,863 L 433,859 L 432,858 L 427,858 L 426,859 L 418,859 L 417,858 Z" fill="none" stroke="black" stroke-width="1" /><path d="M 402,810 L 403,810 L 404,811 L 403,812 L 398,812 L 396,814 L 394,814 L 391,817 L 390,816 L 388,816 L 387,817 L 380,817 L 380,819 L 383,819 L 384,820 L 403,820 L 404,821 L 412,821 L 413,820 L 419,820 L 420,821 L 423,821 L 424,820 L 447,820 L 448,819 L 449,820 L 452,820 L 453,819 L 455,819 L 456,820 L 461,820 L 456,820 L 455,819 L 455,816 L 456,815 L 455,816 L 452,816 L 451,815 L 450,815 L 449,814 L 444,814 L 443,813 L 440,813 L 439,812 L 440,811 L 443,811 L 437,811 L 436,810 Z" fill="none" stroke="black" stroke-width="1" /><path d="M 744,795 Z" fill="none" stroke="black" stroke-width="1" /><path d="M 250,795 L 285,795 Z" fill="none" stroke="black" stroke-width="1" /><path d="M 422,794 L 421,795 L 414,795 L 540,795 L 524,795 L 523,794 Z" fill="none" stroke="black" stroke-width="1" /><path d="M 245,779 L 279,779 Z" fill="none" stroke="black" stroke-width="1" /><path d="M 424,778 L 430,778 L 431,779 L 523,779 L 518,779 L 517,778 Z" fill="none" stroke="black" stroke-width="1" /><path d="M 697,764 Z" fill="none" stroke="black" stroke-width="1" /><path d="M 426,762 L 425,763 L 432,763 L 433,764 L 501,764 L 501,763 L 491,763 L 490,762 Z" fill="none" stroke="black" stroke-width="1" /><path d="M 262,762 L 261,763 L 245,763 L 278,763 L 278,762 Z" fill="none" stroke="black" stroke-width="1" /><path d="M 705,760 L 704,761 L 703,761 L 702,762 L 701,762 L 702,762 L 703,761 L 704,761 L 705,760 L 706,760 Z" fill="none" stroke="black" stroke-width="1" /><path d="M 553,760 Z" fill="none" stroke="black" stroke-width="1" /><path d="M 709,758 L 708,759 L 709,758 L 710,758 Z" fill="none" stroke="black" stroke-width="1" /><path d="M 406,756 L 406,763 Z" fill="none" stroke="black" stroke-width="1" /><path d="M 545,755 L 546,756 L 547,756 L 549,758 L 550,758 L 551,759 L 550,758 L 549,758 L 547,756 L 546,756 Z" fill="none" stroke="black" stroke-width="1" /><path d="M 285,754 L 285,769 L 284,770 L 284,773 L 285,772 L 285,771 L 286,770 L 286,769 L 285,768 Z" fill="none" stroke="black" stroke-width="1" /><path d="M 542,753 Z" fill="none" stroke="black" stroke-width="1" /><path d="M 429,747 L 432,747 L 433,748 L 447,748 L 448,749 L 460,749 L 461,748 L 469,748 L 470,749 L 471,749 L 472,748 L 487,748 L 488,747 Z" fill="none" stroke="black" stroke-width="1" /><path d="M 523,739 L 526,742 Z" fill="none" stroke="black" stroke-width="1" /><path d="M 520,737 Z" fill="none" stroke="black" stroke-width="1" /><path d="M 245,732 L 246,733 L 259,733 L 260,732 Z" fill="none" stroke="black" stroke-width="1" /><path d="M 599,731 L 645,731 Z" fill="none" stroke="black" stroke-width="1" /><path d="M 448,731 L 447,732 L 429,732 L 428,733 L 429,734 L 480,734 L 481,733 L 482,733 L 483,732 L 473,732 L 472,731 Z" fill="none" stroke="black" stroke-width="1" /><path d="M 574,730 L 591,730 Z" fill="none" stroke="black" stroke-width="1" /><path d="M 692,729 L 691,730 L 676,730 L 691,730 L 692,729 L 693,729 Z" fill="none" stroke="black" stroke-width="1" /><path d="M 695,728 Z" fill="none" stroke="black" stroke-width="1" /><path d="M 698,726 Z" fill="none" stroke="black" stroke-width="1" /><path d="M 701,724 L 700,725 Z" fill="none" stroke="black" stroke-width="1" /><path d="M 504,721 L 518,735 Z" fill="none" stroke="black" stroke-width="1" /><path d="M 502,719 Z" fill="none" stroke="black" stroke-width="1" /><path d="M 724,718 L 725,718 Z" fill="none" stroke="black" stroke-width="1" /><path d="M 268,717 L 275,717 L 276,718 L 277,717 Z" fill="none" stroke="black" stroke-width="1" /><path d="M 245,717 L 245,718 L 264,718 L 265,717 L 266,717 Z" fill="none" stroke="black" stroke-width="1" /><path d="M 444,716 L 443,717 L 424,717 L 424,718 L 423,719 L 476,719 L 477,718 L 479,718 L 476,718 L 475,717 L 452,717 L 451,716 Z" fill="none" stroke="black" stroke-width="1" /><path d="M 728,715 Z" fill="none" stroke="black" stroke-width="1" /><path d="M 712,715 L 709,718 Z" fill="none" stroke="black" stroke-width="1" /><path d="M 498,714 L 499,715 Z" fill="none" stroke="black" stroke-width="1" /><path d="M 496,712 Z" fill="none" stroke="black" stroke-width="1" /><path d="M 718,710 L 716,712 Z" fill="none" stroke="black" stroke-width="1" /><path d="M 244,702 L 245,703 L 278,703 L 279,702 L 282,702 Z" fill="none" stroke="black" stroke-width="1" /><path d="M 432,701 L 431,702 L 425,702 L 424,703 L 426,703 L 427,704 L 473,704 L 474,703 L 473,703 L 472,702 L 469,702 L 468,701 Z" fill="none" stroke="black" stroke-width="1" /><path d="M 427,686 L 426,687 L 424,687 L 429,687 L 430,688 L 439,688 L 440,689 L 464,689 L 465,688 L 469,688 L 469,687 L 468,687 L 467,686 Z" fill="none" stroke="black" stroke-width="1" /><path d="M 245,686 L 245,687 L 246,688 L 247,688 L 248,687 L 279,687 L 268,687 L 267,686 Z" fill="none" stroke="black" stroke-width="1" /><path d="M 379,684 L 379,687 Z" fill="none" stroke="black" stroke-width="1" /><path d="M 745,683 L 741,687 L 740,687 L 739,688 L 739,689 L 738,690 Z" fill="none" stroke="black" stroke-width="1" /><path d="M 424,671 L 424,672 L 432,672 L 433,673 L 465,673 L 466,672 L 462,672 L 461,671 Z" fill="none" stroke="black" stroke-width="1" /><path d="M 244,671 L 244,672 L 280,672 L 264,672 L 263,671 Z" fill="none" stroke="black" stroke-width="1" /><path d="M 379,660 L 379,662 Z" fill="none" stroke="black" stroke-width="1" /><path d="M 251,656 L 250,657 L 244,657 L 267,657 L 268,656 L 270,656 Z" fill="none" stroke="black" stroke-width="1" /><path d="M 432,655 L 431,656 L 425,656 L 425,657 L 432,657 L 433,658 L 450,658 L 451,657 L 464,657 L 463,656 L 450,656 L 449,655 Z" fill="none" stroke="black" stroke-width="1" /><path d="M 245,642 L 261,642 Z" fill="none" stroke="black" stroke-width="1" /><path d="M 431,641 L 430,642 L 422,642 L 422,643 L 466,643 L 466,642 L 460,642 L 459,641 Z" fill="none" stroke="black" stroke-width="1" /><path d="M 287,636 L 287,640 Z" fill="none" stroke="black" stroke-width="1" /><path d="M 619,626 L 620,627 L 643,627 L 644,628 L 653,628 L 650,628 L 649,627 L 630,627 L 629,626 Z" fill="none" stroke="black" stroke-width="1" /><path d="M 431,626 L 430,627 L 425,627 L 426,628 L 431,628 L 432,629 L 439,629 L 440,628 L 445,628 L 446,629 L 453,629 L 454,628 L 462,628 L 463,627 L 467,627 L 465,627 L 464,626 Z" fill="none" stroke="black" stroke-width="1" /><path d="M 245,626 L 246,627 L 284,627 L 264,627 L 263,626 Z" fill="none" stroke="black" stroke-width="1" /><path d="M 432,610 L 431,611 L 429,611 L 455,611 L 456,610 L 464,610 Z" fill="none" stroke="black" stroke-width="1" /><path d="M 252,593 L 251,594 L 248,594 L 259,594 L 260,593 L 283,593 Z" fill="none" stroke="black" stroke-width="1" /><path d="M 430,592 L 435,592 L 436,593 L 457,593 L 458,592 L 466,592 Z" fill="none" stroke="black" stroke-width="1" /><path d="M 287,591 L 287,626 Z" fill="none" stroke="black" stroke-width="1" /><path d="M 430,576 L 429,577 L 428,577 L 430,577 L 431,578 L 434,578 L 435,579 L 451,579 L 452,578 L 467,578 L 467,577 L 457,577 L 456,576 Z" fill="none" stroke="black" stroke-width="1" /><path d="M 240,574 Z" fill="none" stroke="black" stroke-width="1" /><path d="M 426,560 L 427,560 L 428,561 L 435,561 L 436,562 L 454,562 L 455,561 L 456,562 L 457,561 L 468,561 L 467,560 Z" fill="none" stroke="black" stroke-width="1" /><path d="M 272,560 L 284,560 Z" fill="none" stroke="black" stroke-width="1" /><path d="M 248,560 L 259,560 Z" fill="none" stroke="black" stroke-width="1" /><path d="M 243,560 Z" fill="none" stroke="black" stroke-width="1" /><path d="M 240,558 Z" fill="none" stroke="black" stroke-width="1" /><path d="M 429,544 L 428,545 L 425,545 L 428,545 L 429,546 L 435,546 L 436,547 L 459,547 L 460,546 L 465,546 L 466,545 L 467,545 L 463,545 L 462,544 Z" fill="none" stroke="black" stroke-width="1" /><path d="M 254,544 L 255,544 Z" fill="none" stroke="black" stroke-width="1" /><path d="M 240,543 L 240,548 Z" fill="none" stroke="black" stroke-width="1" /><path d="M 233,540 L 233,550 L 232,551 L 232,567 L 233,568 L 233,571 L 232,572 L 232,598 L 231,599 L 232,600 L 232,651 L 231,652 L 232,653 L 232,682 L 231,683 L 232,684 L 232,685 L 231,686 L 232,687 L 231,688 L 231,696 L 232,697 L 232,698 L 231,699 L 231,725 L 232,726 L 232,738 L 233,739 L 233,740 L 234,741 L 234,743 L 235,744 L 235,747 L 235,744 L 236,743 L 237,743 L 238,744 L 239,744 L 240,743 L 240,732 L 239,731 L 240,730 L 240,729 L 239,728 L 240,727 L 240,717 L 241,716 L 240,715 L 240,696 L 241,695 L 241,641 L 240,640 L 240,636 L 241,635 L 241,616 L 240,615 L 241,614 L 241,607 L 240,606 L 240,597 L 241,596 L 241,591 L 240,590 L 240,580 L 241,579 L 240,578 L 240,576 L 239,577 L 238,576 L 238,574 L 237,573 L 237,572 L 238,571 L 238,565 L 239,564 L 240,565 L 240,566 L 240,562 L 239,561 L 240,560 L 238,560 L 237,559 L 237,544 L 236,543 L 236,540 Z" fill="none" stroke="black" stroke-width="1" /><path d="M 632,531 L 645,531 Z" fill="none" stroke="black" stroke-width="1" /><path d="M 244,528 L 244,529 L 283,529 L 269,529 L 268,528 Z" fill="none" stroke="black" stroke-width="1" /><path d="M 428,527 L 427,528 L 426,528 L 426,529 L 430,529 L 431,530 L 457,530 L 458,529 L 467,529 L 467,528 L 458,528 L 457,527 Z" fill="none" stroke="black" stroke-width="1" /><path d="M 244,514 L 245,514 Z" fill="none" stroke="black" stroke-width="1" /><path d="M 430,511 L 429,512 L 422,512 L 423,513 L 440,513 L 441,514 L 466,514 L 466,513 L 462,513 L 461,512 L 450,512 L 449,511 Z" fill="none" stroke="black" stroke-width="1" /><path d="M 287,499 L 287,511 Z" fill="none" stroke="black" stroke-width="1" /><path d="M 634,498 Z" fill="none" stroke="black" stroke-width="1" /><path d="M 428,496 L 427,497 L 433,497 L 434,498 L 445,498 L 446,499 L 455,499 L 447,499 L 446,498 L 447,497 L 459,497 L 449,497 L 448,496 Z" fill="none" stroke="black" stroke-width="1" /><path d="M 428,481 L 429,481 L 430,482 L 455,482 L 456,483 L 460,483 L 461,482 L 466,482 L 467,481 Z" fill="none" stroke="black" stroke-width="1" /><path d="M 287,470 L 287,481 Z" fill="none" stroke="black" stroke-width="1" /><path d="M 272,465 L 273,465 Z" fill="none" stroke="black" stroke-width="1" /><path d="M 252,465 L 261,465 Z" fill="none" stroke="black" stroke-width="1" /><path d="M 440,464 L 439,465 L 425,465 L 425,466 L 453,466 L 454,467 L 458,467 L 459,466 L 467,466 L 465,466 L 464,465 L 452,465 L 451,464 Z" fill="none" stroke="black" stroke-width="1" /><path d="M 440,450 L 439,451 L 429,451 L 466,451 L 455,451 L 454,450 Z" fill="none" stroke="black" stroke-width="1" /><path d="M 522,449 L 524,449 Z" fill="none" stroke="black" stroke-width="1" /><path d="M 537,447 Z" fill="none" stroke="black" stroke-width="1" /><path d="M 553,446 L 555,446 Z" fill="none" stroke="black" stroke-width="1" /><path d="M 548,446 L 548,447 L 551,447 L 551,446 Z" fill="none" stroke="black" stroke-width="1" /><path d="M 543,446 L 542,447 L 543,446 L 544,447 L 546,447 L 545,446 Z" fill="none" stroke="black" stroke-width="1" /><path d="M 618,445 L 617,446 L 599,446 L 608,446 L 609,447 L 657,447 L 650,447 L 649,446 L 650,445 L 661,445 Z" fill="none" stroke="black" stroke-width="1" /><path d="M 287,439 L 287,465 Z" fill="none" stroke="black" stroke-width="1" /><path d="M 786,429 L 783,432 L 782,432 L 780,434 L 779,434 L 777,436 L 777,437 L 776,438 L 776,447 L 775,448 L 775,454 L 776,455 L 776,456 L 775,457 L 771,457 L 770,458 L 728,458 L 727,459 L 686,459 L 685,458 L 684,458 L 683,459 L 682,458 L 633,458 L 632,457 L 592,457 L 593,458 L 624,458 L 625,459 L 785,459 L 786,458 L 788,458 L 789,459 L 788,460 L 788,462 L 787,463 L 787,470 L 786,471 L 786,497 L 785,498 L 785,518 L 786,519 L 786,601 L 785,602 L 785,639 L 786,640 L 786,688 L 787,689 L 787,694 L 786,695 L 786,696 L 784,698 L 783,698 L 780,701 L 776,701 L 763,714 L 763,715 L 762,716 L 761,716 L 760,717 L 760,718 L 756,722 L 758,720 L 759,720 L 761,718 L 762,718 L 765,715 L 765,714 L 773,706 L 774,706 L 775,705 L 776,705 L 778,707 L 778,713 L 773,718 L 770,718 L 770,719 L 771,720 L 772,720 L 773,721 L 775,721 L 776,722 L 776,732 L 775,733 L 773,733 L 772,734 L 766,734 L 772,734 L 773,735 L 775,735 L 776,736 L 776,748 L 775,749 L 763,749 L 763,750 L 770,750 L 771,751 L 775,751 L 776,752 L 776,762 L 775,763 L 770,763 L 769,764 L 762,764 L 765,764 L 766,765 L 774,765 L 776,767 L 776,769 L 775,770 L 775,774 L 776,775 L 776,777 L 775,778 L 764,778 L 763,779 L 752,779 L 765,779 L 766,780 L 775,780 L 776,781 L 776,792 L 775,793 L 773,793 L 772,794 L 752,794 L 751,795 L 748,795 L 753,795 L 754,796 L 775,796 L 777,798 L 777,808 L 776,809 L 764,809 L 763,810 L 740,810 L 739,809 L 684,809 L 683,810 L 644,810 L 643,809 L 635,809 L 634,810 L 618,810 L 617,811 L 614,811 L 613,812 L 612,812 L 611,813 L 609,813 L 608,814 L 608,815 L 607,816 L 602,816 L 602,817 L 599,820 L 595,820 L 596,820 L 597,821 L 619,821 L 620,822 L 788,822 L 788,820 L 789,819 L 789,800 L 788,799 L 788,784 L 789,783 L 789,782 L 788,781 L 789,780 L 789,712 L 788,711 L 788,698 L 787,697 L 787,686 L 788,685 L 788,672 L 789,671 L 790,672 L 791,672 L 792,673 L 788,669 L 788,664 L 787,663 L 787,488 L 788,487 L 788,463 L 789,462 L 789,460 L 791,458 L 791,457 L 790,456 L 790,450 L 789,449 L 789,443 L 788,442 L 788,436 L 787,435 L 787,431 L 786,430 Z" fill="none" stroke="black" stroke-width="1" /><path d="M 607,429 L 611,429 L 612,430 L 614,430 L 615,431 L 660,431 L 659,430 L 649,430 L 648,429 Z" fill="none" stroke="black" stroke-width="1" /><path d="M 349,423 L 349,424 L 360,424 L 361,425 L 360,426 L 338,426 L 352,426 L 353,427 L 354,426 L 371,426 L 372,425 L 374,425 L 375,426 L 375,424 L 374,424 L 373,425 L 372,425 L 371,424 L 367,424 L 366,425 L 365,424 L 364,425 L 363,424 L 358,424 L 357,423 L 356,424 L 355,424 L 354,423 L 353,423 L 352,424 L 351,424 L 350,423 Z" fill="none" stroke="black" stroke-width="1" /><path d="M 684,411 L 683,412 Z" fill="none" stroke="black" stroke-width="1" /><path d="M 693,400 L 692,401 L 692,402 L 690,404 L 690,406 L 686,410 L 687,410 L 689,408 L 689,407 L 691,405 L 691,404 L 693,402 L 693,401 L 694,400 Z" fill="none" stroke="black" stroke-width="1" /><path d="M 566,273 L 565,274 L 562,274 L 561,275 L 560,275 L 559,276 L 558,276 L 556,278 L 555,278 L 553,280 L 552,280 L 551,281 L 550,281 L 548,283 L 547,283 L 543,287 L 542,287 L 538,291 L 537,291 L 505,323 L 505,324 L 501,328 L 501,329 L 499,331 L 499,333 L 502,333 L 504,335 L 504,482 L 503,483 L 503,501 L 502,502 L 501,501 L 501,499 L 501,507 L 500,508 L 500,516 L 499,517 L 496,517 L 496,519 L 499,519 L 500,520 L 500,523 L 499,524 L 496,524 L 496,526 L 499,526 L 500,527 L 500,529 L 499,530 L 496,530 L 496,535 L 497,536 L 497,551 L 499,551 L 500,552 L 500,557 L 501,558 L 501,577 L 500,578 L 500,580 L 499,581 L 498,581 L 498,582 L 497,583 L 497,585 L 496,586 L 496,587 L 497,588 L 497,589 L 496,590 L 496,594 L 497,595 L 496,596 L 496,666 L 497,667 L 497,673 L 498,674 L 498,677 L 499,678 L 499,679 L 501,681 L 501,680 L 504,677 L 505,677 L 507,675 L 507,674 L 506,673 L 506,654 L 505,653 L 505,623 L 504,622 L 504,535 L 503,534 L 503,503 L 504,502 L 504,498 L 503,497 L 504,496 L 504,470 L 505,469 L 505,448 L 506,447 L 507,448 L 507,449 L 513,449 L 514,450 L 515,449 L 511,449 L 510,448 L 511,447 L 512,447 L 513,446 L 514,447 L 515,447 L 516,446 L 517,447 L 518,447 L 519,446 L 520,447 L 522,447 L 523,446 L 533,446 L 519,446 L 518,445 L 518,444 L 519,443 L 558,443 L 559,444 L 559,528 L 560,529 L 560,619 L 561,620 L 561,648 L 562,649 L 562,651 L 563,652 L 563,653 L 564,654 L 564,655 L 565,656 L 565,657 L 567,659 L 567,660 L 570,663 L 570,664 L 575,669 L 576,669 L 579,672 L 580,672 L 581,673 L 582,673 L 584,675 L 586,675 L 587,676 L 588,676 L 589,677 L 592,677 L 593,678 L 669,678 L 670,677 L 674,677 L 675,676 L 677,676 L 678,675 L 679,675 L 682,672 L 683,672 L 685,670 L 686,670 L 693,663 L 693,662 L 695,660 L 695,659 L 697,657 L 697,618 L 696,617 L 696,576 L 697,575 L 697,544 L 679,544 L 678,543 L 638,543 L 637,544 L 628,544 L 627,543 L 627,536 L 628,535 L 627,534 L 627,533 L 628,532 L 628,494 L 629,493 L 653,493 L 654,492 L 740,492 L 741,493 L 750,493 L 751,494 L 751,665 L 752,666 L 752,681 L 753,681 L 754,682 L 757,682 L 757,681 L 759,679 L 759,669 L 758,668 L 758,664 L 759,663 L 759,582 L 758,581 L 758,568 L 759,567 L 759,527 L 758,526 L 758,494 L 757,493 L 757,492 L 756,491 L 758,489 L 758,487 L 760,485 L 760,484 L 761,483 L 761,482 L 763,480 L 761,480 L 760,481 L 615,481 L 615,482 L 620,487 L 621,487 L 627,493 L 627,523 L 626,524 L 626,543 L 625,544 L 621,544 L 620,543 L 616,543 L 615,542 L 614,542 L 614,544 L 613,545 L 613,551 L 612,552 L 612,558 L 611,559 L 611,564 L 610,565 L 612,563 L 613,563 L 615,561 L 615,560 L 620,555 L 620,554 L 624,550 L 624,549 L 628,545 L 647,545 L 648,544 L 674,544 L 675,545 L 695,545 L 696,546 L 696,654 L 695,655 L 694,655 L 693,656 L 690,656 L 684,662 L 683,662 L 680,665 L 679,665 L 677,667 L 675,667 L 674,668 L 671,668 L 670,669 L 594,669 L 593,668 L 589,668 L 588,667 L 587,667 L 586,666 L 585,666 L 583,664 L 582,664 L 575,657 L 575,656 L 572,653 L 572,652 L 570,650 L 570,649 L 569,648 L 569,647 L 567,645 L 567,618 L 566,617 L 566,570 L 567,569 L 567,391 L 566,390 L 566,377 L 567,376 L 566,376 L 566,378 L 565,379 L 564,379 L 564,380 L 563,381 L 561,379 L 561,368 L 562,367 L 562,366 L 563,365 L 563,363 L 564,362 L 564,361 L 565,360 L 565,359 L 566,358 L 566,357 L 568,355 L 568,354 L 572,350 L 572,349 L 578,343 L 579,343 L 581,341 L 582,341 L 584,339 L 585,339 L 586,338 L 588,338 L 589,337 L 623,337 L 624,338 L 646,338 L 647,337 L 670,337 L 671,338 L 673,338 L 674,339 L 675,339 L 677,341 L 678,341 L 690,353 L 690,354 L 692,356 L 692,357 L 694,359 L 694,360 L 695,361 L 695,363 L 696,364 L 696,369 L 697,370 L 697,395 L 698,396 L 699,395 L 751,395 L 752,394 L 753,395 L 754,395 L 757,398 L 758,398 L 761,401 L 761,378 L 760,377 L 760,364 L 759,363 L 759,342 L 758,341 L 758,338 L 757,337 L 757,336 L 756,335 L 756,334 L 753,331 L 753,330 L 746,323 L 746,322 L 741,317 L 741,316 L 736,311 L 736,310 L 712,286 L 711,286 L 707,282 L 706,282 L 704,280 L 703,280 L 702,279 L 701,279 L 699,277 L 698,277 L 696,275 L 695,275 L 694,274 L 692,274 L 691,273 Z" fill="none" stroke="black" stroke-width="1" /><path d="M 464,272 L 463,273 L 229,273 L 230,274 L 230,275 L 231,276 L 232,276 L 234,278 L 235,278 L 236,279 L 237,279 L 240,282 L 241,282 L 244,285 L 244,286 L 245,287 L 245,339 L 244,340 L 244,342 L 243,343 L 242,342 L 242,341 L 241,340 L 241,339 L 240,338 L 240,337 L 234,337 L 233,338 L 231,338 L 231,339 L 230,340 L 230,347 L 231,348 L 231,355 L 230,356 L 230,360 L 233,357 L 233,356 L 241,348 L 241,347 L 243,345 L 243,344 L 246,341 L 251,341 L 252,340 L 267,340 L 268,339 L 321,339 L 322,340 L 322,493 L 321,494 L 320,493 L 320,468 L 319,467 L 319,464 L 319,467 L 318,468 L 317,467 L 317,462 L 317,469 L 316,470 L 316,551 L 315,552 L 315,579 L 316,580 L 316,605 L 315,606 L 315,656 L 314,657 L 314,701 L 313,702 L 313,720 L 314,721 L 314,735 L 313,736 L 313,739 L 312,740 L 312,741 L 313,741 L 315,739 L 315,738 L 318,735 L 318,734 L 323,729 L 323,718 L 322,717 L 322,712 L 323,711 L 323,648 L 322,647 L 322,644 L 323,643 L 323,590 L 322,589 L 322,578 L 323,577 L 323,490 L 322,489 L 322,449 L 323,448 L 323,431 L 324,430 L 324,425 L 326,423 L 342,423 L 343,424 L 347,424 L 347,423 L 346,422 L 347,421 L 366,421 L 367,422 L 375,422 L 376,421 L 377,422 L 377,436 L 378,437 L 378,438 L 377,439 L 378,440 L 378,516 L 379,517 L 379,611 L 380,612 L 380,633 L 381,634 L 381,721 L 380,722 L 379,721 L 379,697 L 378,696 L 378,728 L 379,729 L 379,730 L 381,732 L 381,733 L 383,735 L 383,736 L 384,737 L 384,738 L 385,739 L 385,741 L 386,741 L 386,739 L 385,738 L 385,736 L 386,735 L 386,600 L 387,599 L 387,576 L 386,575 L 386,568 L 387,567 L 387,480 L 386,479 L 386,460 L 387,459 L 387,374 L 386,373 L 386,360 L 385,359 L 385,358 L 385,360 L 384,361 L 383,360 L 383,362 L 382,363 L 382,367 L 381,368 L 380,367 L 380,343 L 379,342 L 379,340 L 380,339 L 411,339 L 412,340 L 453,340 L 453,339 L 454,338 L 455,338 L 456,339 L 456,340 L 458,340 L 459,341 L 459,342 L 460,342 L 463,345 L 463,346 L 466,349 L 466,350 L 467,351 L 467,328 L 466,329 L 465,329 L 465,331 L 464,332 L 462,332 L 462,333 L 459,336 L 457,336 L 456,335 L 456,300 L 457,299 L 457,285 L 458,284 L 459,284 L 463,280 L 464,280 L 468,276 L 468,275 L 469,274 L 469,272 Z" fill="none" stroke="black" stroke-width="1" /><path d="M 205,271 L 205,365 L 204,366 L 204,374 L 203,375 L 203,378 L 202,379 L 202,381 L 201,382 L 201,384 L 200,385 L 200,386 L 199,387 L 199,388 L 197,390 L 198,389 L 199,389 L 200,388 L 200,386 L 201,385 L 201,384 L 202,383 L 202,381 L 203,380 L 203,378 L 204,377 L 204,372 L 205,371 Z" fill="none" stroke="black" stroke-width="1" /><path d="M 201,253 L 201,254 L 202,255 L 202,258 L 203,259 L 203,262 L 204,263 L 204,268 L 204,262 L 203,261 L 203,258 L 202,257 L 202,255 L 201,254 Z" fill="none" stroke="black" stroke-width="1" /><path d="M 772,251 L 771,252 L 715,252 L 717,252 L 718,253 L 747,253 L 748,252 L 774,252 L 773,251 Z" fill="none" stroke="black" stroke-width="1" /><path d="M 236,236 L 236,237 L 235,238 L 234,238 L 234,239 L 233,240 L 233,247 L 231,249 L 215,249 L 214,248 L 199,248 L 201,248 L 202,249 L 207,249 L 208,250 L 241,250 L 242,251 L 499,251 L 500,250 L 505,250 L 506,251 L 506,250 L 495,250 L 494,249 L 481,249 L 480,250 L 242,250 L 240,248 L 240,245 L 239,244 L 239,242 L 240,241 L 240,240 Z" fill="none" stroke="black" stroke-width="1" /><path d="M 266,232 L 267,232 Z" fill="none" stroke="black" stroke-width="1" /><path d="M 246,224 L 245,225 L 240,225 L 240,230 L 241,231 L 244,231 L 247,234 L 267,234 L 264,234 L 263,233 L 260,233 L 259,232 L 260,231 L 262,231 L 262,230 L 261,229 L 260,229 L 259,230 L 253,230 L 252,229 L 252,228 L 247,228 L 246,227 L 246,226 L 247,225 L 247,224 Z" fill="none" stroke="black" stroke-width="1" /><path d="M 587,222 L 586,223 L 558,223 L 557,224 L 556,224 L 556,225 L 557,226 L 557,227 L 556,228 L 556,229 L 555,230 L 547,230 L 547,231 L 546,232 L 547,233 L 553,233 L 554,234 L 574,234 L 575,235 L 743,235 L 744,234 L 746,234 L 747,235 L 748,234 L 776,234 L 777,235 L 777,249 L 776,250 L 776,269 L 775,270 L 774,269 L 740,269 L 739,270 L 738,270 L 760,270 L 761,271 L 771,271 L 772,272 L 774,272 L 775,271 L 776,272 L 776,282 L 775,283 L 773,283 L 772,284 L 754,284 L 757,284 L 758,285 L 769,285 L 770,286 L 775,286 L 776,287 L 776,304 L 775,305 L 775,311 L 774,312 L 773,312 L 746,285 L 745,285 L 740,280 L 739,280 L 727,268 L 726,268 L 723,265 L 722,265 L 719,262 L 718,262 L 715,259 L 714,259 L 713,258 L 712,258 L 710,256 L 709,256 L 708,255 L 706,255 L 705,254 L 703,254 L 702,253 L 701,253 L 700,252 L 697,252 L 696,251 L 691,251 L 690,250 L 556,250 L 555,251 L 552,251 L 551,252 L 508,252 L 508,253 L 521,253 L 522,252 L 528,252 L 529,253 L 547,253 L 548,254 L 545,257 L 544,257 L 543,258 L 542,258 L 540,260 L 539,260 L 537,262 L 536,262 L 535,263 L 534,263 L 532,265 L 531,265 L 530,266 L 529,266 L 528,267 L 526,267 L 525,268 L 506,268 L 505,269 L 506,269 L 507,270 L 518,270 L 519,271 L 522,271 L 523,270 L 524,270 L 525,271 L 522,274 L 521,274 L 515,280 L 514,280 L 512,282 L 510,282 L 509,283 L 497,283 L 498,283 L 499,284 L 503,284 L 504,285 L 505,285 L 506,286 L 507,286 L 508,287 L 509,286 L 510,286 L 512,284 L 513,284 L 515,282 L 516,282 L 528,270 L 529,270 L 532,267 L 533,267 L 536,264 L 537,264 L 539,262 L 540,262 L 544,258 L 545,258 L 547,256 L 548,256 L 549,255 L 551,255 L 552,254 L 554,254 L 555,253 L 557,253 L 558,252 L 561,252 L 562,251 L 684,251 L 685,252 L 690,252 L 691,253 L 694,253 L 695,254 L 696,254 L 697,255 L 699,255 L 700,256 L 701,256 L 702,257 L 704,257 L 705,258 L 706,258 L 707,259 L 708,259 L 709,260 L 711,260 L 713,262 L 714,262 L 716,264 L 717,264 L 721,268 L 722,268 L 726,272 L 727,272 L 738,283 L 739,283 L 755,299 L 756,299 L 764,307 L 764,308 L 769,313 L 769,314 L 772,317 L 772,318 L 775,321 L 775,322 L 777,324 L 777,325 L 779,327 L 779,328 L 781,330 L 781,331 L 782,332 L 782,334 L 783,335 L 783,339 L 784,340 L 784,350 L 785,351 L 785,381 L 786,382 L 786,406 L 787,407 L 787,415 L 788,416 L 788,421 L 789,422 L 789,423 L 789,411 L 788,410 L 788,395 L 787,394 L 787,346 L 786,345 L 786,335 L 785,334 L 785,332 L 786,331 L 786,330 L 787,329 L 787,327 L 788,326 L 788,305 L 789,304 L 789,244 L 788,243 L 788,222 L 721,222 L 720,223 L 703,223 L 702,222 L 652,222 L 651,223 L 650,222 L 649,223 L 644,223 L 643,222 L 591,222 L 590,223 L 589,222 Z" fill="none" stroke="black" stroke-width="1" /><path d="M 673,216 Z" fill="none" stroke="black" stroke-width="1" /><path d="M 811,169 Z" fill="none" stroke="black" stroke-width="1" /></svg>